<svg width="24" height="24" viewBox="0 0 24 24" fill="none" xmlns="http://www.w3.org/2000/svg">
<g clip-path="url(#clip0_56_1268)">
<path d="M12.0001 16.0002C10.9392 16.0002 9.92181 15.5788 9.17166 14.8286C8.42151 14.0785 8.00009 13.0611 8.00009 12.0002C8.00009 10.9393 8.42151 9.92191 9.17166 9.17176C9.92181 8.42162 10.9392 8.00019 12.0001 8.00019C13.061 8.00019 14.0784 8.42162 14.8285 9.17176C15.5787 9.92191 16.0001 10.9393 16.0001 12.0002C16.0001 13.0611 15.5787 14.0785 14.8285 14.8286C14.0784 15.5788 13.061 16.0002 12.0001 16.0002ZM12.0001 10.0002C11.4697 10.0002 10.9609 10.2109 10.5859 10.586C10.2108 10.961 10.0001 11.4698 10.0001 12.0002C10.0001 12.5306 10.2108 13.0393 10.5859 13.4144C10.9609 13.7895 11.4697 14.0002 12.0001 14.0002C12.5305 14.0002 13.0392 13.7895 13.4143 13.4144C13.7894 13.0393 14.0001 12.5306 14.0001 12.0002C14.0001 11.4698 13.7894 10.961 13.4143 10.586C13.0392 10.2109 12.5305 10.0002 12.0001 10.0002ZM12.0001 24.0002C10.9092 23.9991 9.84862 23.6417 8.97949 22.9825C8.11037 22.3233 7.48029 21.3983 7.18509 20.3482C6.12976 20.5812 5.02759 20.4712 4.03915 20.0342C3.0507 19.5971 2.22763 18.8559 1.68983 17.9185C1.15203 16.981 0.9276 15.8963 1.04924 14.8225C1.17088 13.7486 1.63223 12.7416 2.36609 11.9482C-1.03391 8.43719 2.37509 2.34819 7.20009 3.59919C7.51132 2.56835 8.14614 1.66508 9.01062 1.02307C9.87509 0.381051 10.9233 0.0343933 12.0001 0.0343933C13.0769 0.0343933 14.1251 0.381051 14.9896 1.02307C15.854 1.66508 16.4889 2.56835 16.8001 3.59919C21.7001 2.38319 25.0001 8.41219 21.6291 11.9912C25.0371 15.5292 21.6401 21.4332 16.8151 20.3482C16.5199 21.3983 15.8898 22.3233 15.0207 22.9825C14.1516 23.6417 13.0909 23.9991 12.0001 24.0002ZM8.00009 18.0002C8.2653 18.0002 8.51966 18.1055 8.70719 18.2931C8.89473 18.4806 9.00009 18.735 9.00009 19.0002C9.00009 19.7958 9.31616 20.5589 9.87877 21.1215C10.4414 21.6841 11.2044 22.0002 12.0001 22.0002C12.7957 22.0002 13.5588 21.6841 14.1214 21.1215C14.684 20.5589 15.0001 19.7958 15.0001 19.0002C15 18.824 15.0465 18.651 15.1348 18.4985C15.2231 18.3461 15.35 18.2197 15.5029 18.1321C15.6557 18.0445 15.829 17.9988 16.0052 17.9997C16.1813 18.0006 16.3541 18.048 16.5061 18.1372C19.9721 19.8122 22.9061 14.9552 19.5221 12.8782C19.3659 12.7909 19.2359 12.6635 19.1454 12.5091C19.0549 12.3548 19.0072 12.1791 19.0072 12.0002C19.0072 11.8213 19.0549 11.6456 19.1454 11.4913C19.2359 11.3369 19.3659 11.2095 19.5221 11.1222C22.8351 9.11319 20.0441 3.90319 16.5031 5.86819C16.3508 5.95679 16.1779 6.00361 16.0018 6.0039C15.8256 6.0042 15.6525 5.95796 15.5 5.86987C15.3474 5.78178 15.2209 5.65496 15.1331 5.50224C15.0453 5.34953 14.9994 5.17633 15.0001 5.00019C15.0001 4.20454 14.684 3.44148 14.1214 2.87887C13.5588 2.31626 12.7957 2.00019 12.0001 2.00019C11.2044 2.00019 10.4414 2.31626 9.87877 2.87887C9.31616 3.44148 9.00009 4.20454 9.00009 5.00019C9.00043 5.17589 8.95448 5.34859 8.86686 5.50088C8.77923 5.65318 8.65302 5.77969 8.50094 5.8677C8.34887 5.9557 8.17629 6.00208 8.00058 6.00216C7.82488 6.00225 7.65225 5.95604 7.50009 5.86819C4.00009 3.90819 1.13809 9.08019 4.47809 11.0702C4.63422 11.1577 4.76421 11.2852 4.85469 11.4396C4.94517 11.594 4.99286 11.7697 4.99286 11.9487C4.99286 12.1277 4.94517 12.3034 4.85469 12.4578C4.76421 12.6122 4.63422 12.7397 4.47809 12.8272C1.13009 14.9402 3.96409 19.8002 7.49409 18.1372C7.64757 18.0473 7.82224 18 8.00009 18.0002Z" fill="#667085"/>
</g>
<defs>
<clipPath id="clip0_56_1268">
<rect width="24" height="24" fill="white"/>
</clipPath>
</defs>
</svg>
