<svg width="16" height="16" viewBox="0 0 16 16" fill="none" xmlns="http://www.w3.org/2000/svg">
<g clip-path="url(#clip0_221_6711)">
<path d="M8.66648 0.666724C8.66648 0.489913 8.73672 0.320344 8.86175 0.19532C8.98677 0.0702955 9.15634 5.75652e-05 9.33315 5.75652e-05C11.1007 0.00199863 12.7952 0.705001 14.045 1.95482C15.2949 3.20465 15.9979 4.89921 15.9998 6.66673C15.9998 6.84354 15.9296 7.01311 15.8045 7.13813C15.6795 7.26315 15.51 7.33339 15.3331 7.33339C15.1563 7.33339 14.9868 7.26315 14.8617 7.13813C14.7367 7.01311 14.6665 6.84354 14.6665 6.66673C14.6649 5.25272 14.1025 3.89709 13.1026 2.89724C12.1028 1.89739 10.7471 1.33498 9.33315 1.33339C9.15634 1.33339 8.98677 1.26315 8.86175 1.13813C8.73672 1.0131 8.66648 0.843535 8.66648 0.666724ZM9.33315 4.00006C10.0404 4.00006 10.7187 4.28101 11.2188 4.78111C11.7189 5.2812 11.9998 5.95948 11.9998 6.66673C11.9998 6.84354 12.0701 7.01311 12.1951 7.13813C12.3201 7.26315 12.4897 7.33339 12.6665 7.33339C12.8433 7.33339 13.0129 7.26315 13.1379 7.13813C13.2629 7.01311 13.3331 6.84354 13.3331 6.66673C13.3321 5.60618 12.9103 4.58938 12.1604 3.83947C11.4105 3.08955 10.3937 2.66778 9.33315 2.66672C9.15634 2.66672 8.98677 2.73696 8.86175 2.86199C8.73672 2.98701 8.66648 3.15658 8.66648 3.33339C8.66648 3.5102 8.73672 3.67977 8.86175 3.8048C8.98677 3.92982 9.15634 4.00006 9.33315 4.00006ZM15.3951 11.1594C15.7815 11.5468 15.9984 12.0716 15.9984 12.6187C15.9984 13.1658 15.7815 13.6906 15.3951 14.0781L14.7885 14.7774C9.32848 20.0047 -3.95817 6.72139 1.18849 1.24406L1.95516 0.577391C2.343 0.201842 2.86311 -0.00590972 3.40296 -0.000919207C3.94281 0.0040713 4.45899 0.221403 4.83982 0.604058C4.86049 0.624724 6.09582 2.22939 6.09582 2.22939C6.46237 2.61448 6.66642 3.12601 6.66555 3.65766C6.66469 4.18931 6.45896 4.70017 6.09115 5.08406L5.31916 6.05473C5.74639 7.0928 6.37453 8.03622 7.16749 8.83079C7.96045 9.62535 8.90261 10.2554 9.93982 10.6847L10.9165 9.90806C11.3004 9.54053 11.8112 9.33506 12.3427 9.33431C12.8742 9.33357 13.3855 9.53761 13.7705 9.90406C13.7705 9.90406 15.3745 11.1387 15.3951 11.1594ZM14.4778 12.1287C14.4778 12.1287 12.8825 10.9014 12.8618 10.8807C12.7245 10.7445 12.5389 10.6681 12.3455 10.6681C12.1521 10.6681 11.9665 10.7445 11.8291 10.8807C11.8111 10.8994 10.4665 11.9707 10.4665 11.9707C10.3759 12.0429 10.268 12.0901 10.1536 12.1079C10.0391 12.1257 9.92204 12.1133 9.81382 12.0721C8.47012 11.5718 7.24964 10.7886 6.23504 9.77544C5.22044 8.76234 4.43542 7.54301 3.93316 6.20006C3.88862 6.09036 3.8741 5.97078 3.89109 5.85362C3.90808 5.73645 3.95597 5.62592 4.02982 5.53339C4.02982 5.53339 5.10116 4.18806 5.11916 4.17072C5.25533 4.03338 5.33174 3.8478 5.33174 3.65439C5.33174 3.46098 5.25533 3.2754 5.11916 3.13806C5.09849 3.11806 3.87116 1.52139 3.87116 1.52139C3.73176 1.3964 3.54983 1.32945 3.36266 1.33429C3.17549 1.33912 2.99725 1.41537 2.86449 1.54739L2.09783 2.21406C-1.6635 6.73672 9.85048 17.6121 13.8138 13.8667L14.4211 13.1667C14.5635 13.0349 14.6489 12.8529 14.6595 12.6592C14.6701 12.4655 14.6049 12.2753 14.4778 12.1287Z" fill="url(#paint0_linear_221_6711)"/>
</g>
<defs>
<linearGradient id="paint0_linear_221_6711" x1="18.1275" y1="-8.29337" x2="-6.45619" y2="0.584906" gradientUnits="userSpaceOnUse">
<stop stop-color="#7017FF"/>
<stop offset="0.581895" stop-color="#F80261"/>
<stop offset="1" stop-color="#FFD000"/>
</linearGradient>
<clipPath id="clip0_221_6711">
<rect width="16" height="16" fill="white"/>
</clipPath>
</defs>
</svg>
