<svg width="20" height="20" viewBox="0 0 20 20" fill="none" xmlns="http://www.w3.org/2000/svg">
<path d="M15.5916 6.84167C15.5141 6.76356 15.4219 6.70156 15.3204 6.65926C15.2188 6.61695 15.1099 6.59517 14.9999 6.59517C14.8899 6.59517 14.781 6.61695 14.6794 6.65926C14.5779 6.70156 14.4857 6.76356 14.4082 6.84167L10.5916 10.6583C10.5141 10.7364 10.4219 10.7984 10.3204 10.8407C10.2188 10.883 10.1099 10.9048 9.99989 10.9048C9.88988 10.9048 9.78096 10.883 9.67941 10.8407C9.57786 10.7984 9.48569 10.7364 9.40822 10.6583L5.59155 6.84167C5.51409 6.76356 5.42192 6.70156 5.32037 6.65926C5.21882 6.61695 5.1099 6.59517 4.99989 6.59517C4.88988 6.59517 4.78096 6.61695 4.67941 6.65926C4.57786 6.70156 4.48569 6.76356 4.40822 6.84167C4.25301 6.9978 4.16589 7.20901 4.16589 7.42917C4.16589 7.64932 4.25301 7.86053 4.40822 8.01666L8.23322 11.8417C8.70197 12.3098 9.33739 12.5728 9.99989 12.5728C10.6624 12.5728 11.2978 12.3098 11.7666 11.8417L15.5916 8.01666C15.7468 7.86053 15.8339 7.64932 15.8339 7.42917C15.8339 7.20901 15.7468 6.9978 15.5916 6.84167Z" fill="#667085"/>
</svg>
