<svg width="24" height="24" viewBox="0 0 24 24" fill="none" xmlns="http://www.w3.org/2000/svg">
<g clip-path="url(#clip0_186_733)">
<path d="M7.42395 21C7.81161 21.8914 8.45118 22.6502 9.2641 23.1831C10.077 23.716 11.0279 23.9999 12 23.9999C12.972 23.9999 13.9229 23.716 14.7358 23.1831C15.5487 22.6502 16.1883 21.8914 16.576 21H7.42395Z" fill="url(#paint0_linear_186_733)"/>
<path d="M22.3921 12.549L20.6561 6.82601C20.1001 4.82435 18.8914 3.06578 17.2219 1.82951C15.5524 0.593237 13.5177 -0.0498743 11.441 0.00228606C9.3642 0.0544465 7.36438 0.798889 5.75902 2.11741C4.15367 3.43594 3.03479 5.25297 2.58005 7.28001L1.23205 12.817C1.05289 13.5528 1.04318 14.3196 1.20366 15.0597C1.36415 15.7997 1.69063 16.4936 2.15847 17.0891C2.62632 17.6845 3.2233 18.1659 3.90437 18.497C4.58544 18.828 5.3328 19 6.09005 19H17.6071C18.3878 19 19.1577 18.8172 19.8551 18.4662C20.5525 18.1152 21.158 17.6058 21.6231 16.9788C22.0882 16.3517 22.4 15.6244 22.5335 14.8552C22.6671 14.086 22.6186 13.2961 22.3921 12.549Z" fill="url(#paint1_linear_186_733)"/>
</g>
<defs>
<linearGradient id="paint0_linear_186_733" x1="17.795" y1="19.4427" x2="10.603" y2="27.3663" gradientUnits="userSpaceOnUse">
<stop stop-color="#7017FF"/>
<stop offset="0.581895" stop-color="#F80261"/>
<stop offset="1" stop-color="#FFD000"/>
</linearGradient>
<linearGradient id="paint1_linear_186_733" x1="25.4732" y1="-9.86439" x2="-6.59648" y2="3.25119" gradientUnits="userSpaceOnUse">
<stop stop-color="#7017FF"/>
<stop offset="0.581895" stop-color="#F80261"/>
<stop offset="1" stop-color="#FFD000"/>
</linearGradient>
<clipPath id="clip0_186_733">
<rect width="24" height="24" fill="white"/>
</clipPath>
</defs>
</svg>
