<svg width="24" height="24" viewBox="0 0 24 24" fill="none" xmlns="http://www.w3.org/2000/svg">
<path d="M11.9999 3.51472C11.7348 3.51476 11.4805 3.62011 11.293 3.80761C11.1055 3.99511 11.0001 4.2494 11.0001 4.51457L11.0001 11.0002L4.5145 11.0002C4.24933 11.0002 3.99504 11.1055 3.80754 11.293C3.62004 11.4805 3.51469 11.7348 3.51465 12C3.51469 12.2652 3.62004 12.5195 3.80754 12.707C3.99504 12.8945 4.24933 12.9998 4.5145 12.9998L11.0001 12.9998L11.0001 19.4854C11.0001 19.7506 11.1055 20.0049 11.293 20.1924C11.4805 20.3799 11.7348 20.4852 11.9999 20.4853C12.2651 20.4852 12.5194 20.3799 12.7069 20.1924C12.8944 20.0049 12.9997 19.7506 12.9998 19.4854L12.9998 12.9998L19.4854 12.9998C19.7505 12.9998 20.0048 12.8945 20.1923 12.707C20.3798 12.5195 20.4852 12.2652 20.4852 12C20.4852 11.7348 20.3798 11.4805 20.1923 11.293C20.0048 11.1055 19.7505 11.0002 19.4854 11.0002L12.9998 11.0002L12.9998 4.51457C12.9997 4.2494 12.8944 3.99511 12.7069 3.80761C12.5194 3.62011 12.2651 3.51476 11.9999 3.51472Z" fill="white"/>
</svg>
