<svg width="24" height="24" viewBox="0 0 24 24" fill="none" xmlns="http://www.w3.org/2000/svg">
<g clip-path="url(#clip0_211_416)">
<path d="M19 4H18.492L16.308 1.168C16.0265 0.805806 15.6663 0.512417 15.2547 0.310054C14.843 0.107691 14.3907 0.00166304 13.932 0L10.068 0C9.6093 0.00166304 9.15699 0.107691 8.74533 0.310054C8.33368 0.512417 7.97347 0.805806 7.692 1.168L5.508 4H5C3.67441 4.00159 2.40356 4.52888 1.46622 5.46622C0.528882 6.40356 0.00158786 7.67441 0 9L0 19C0.00158786 20.3256 0.528882 21.5964 1.46622 22.5338C2.40356 23.4711 3.67441 23.9984 5 24H19C20.3256 23.9984 21.5964 23.4711 22.5338 22.5338C23.4711 21.5964 23.9984 20.3256 24 19V9C23.9984 7.67441 23.4711 6.40356 22.5338 5.46622C21.5964 4.52888 20.3256 4.00159 19 4ZM9.276 2.39C9.36967 2.26905 9.48969 2.17106 9.62693 2.10348C9.76418 2.0359 9.91502 2.00051 10.068 2H13.932C14.085 2.00066 14.2357 2.03611 14.373 2.10368C14.5102 2.17125 14.6302 2.26916 14.724 2.39L15.966 4H8.034L9.276 2.39ZM22 19C22 19.7956 21.6839 20.5587 21.1213 21.1213C20.5587 21.6839 19.7956 22 19 22H5C4.20435 22 3.44129 21.6839 2.87868 21.1213C2.31607 20.5587 2 19.7956 2 19V9C2 8.20435 2.31607 7.44129 2.87868 6.87868C3.44129 6.31607 4.20435 6 5 6H19C19.7956 6 20.5587 6.31607 21.1213 6.87868C21.6839 7.44129 22 8.20435 22 9V19Z" fill="#383E49"/>
<path d="M12 7.99991C10.8133 7.99991 9.65328 8.3518 8.66658 9.01109C7.67989 9.67038 6.91085 10.6075 6.45673 11.7038C6.0026 12.8002 5.88378 14.0066 6.11529 15.1705C6.3468 16.3343 6.91825 17.4034 7.75736 18.2426C8.59648 19.0817 9.66558 19.6531 10.8295 19.8846C11.9933 20.1161 13.1997 19.9973 14.2961 19.5432C15.3925 19.0891 16.3295 18.32 16.9888 17.3333C17.6481 16.3466 18 15.1866 18 13.9999C17.9984 12.4091 17.3658 10.8839 16.2409 9.75902C15.116 8.63415 13.5908 8.0015 12 7.99991ZM12 17.9999C11.2089 17.9999 10.4355 17.7653 9.77772 17.3258C9.11993 16.8863 8.60724 16.2615 8.30448 15.5306C8.00173 14.7997 7.92252 13.9955 8.07686 13.2195C8.2312 12.4436 8.61217 11.7309 9.17158 11.1715C9.73099 10.6121 10.4437 10.2311 11.2196 10.0768C11.9956 9.92243 12.7998 10.0016 13.5307 10.3044C14.2616 10.6071 14.8864 11.1198 15.3259 11.7776C15.7654 12.4354 16 13.2088 16 13.9999C16 15.0608 15.5786 16.0782 14.8284 16.8283C14.0783 17.5785 13.0609 17.9999 12 17.9999Z" fill="#383E49"/>
</g>
<defs>
<clipPath id="clip0_211_416">
<rect width="24" height="24" fill="white"/>
</clipPath>
</defs>
</svg>
