<svg width="24" height="24" viewBox="0 0 24 24" fill="none" xmlns="http://www.w3.org/2000/svg">
<g clip-path="url(#clip0_116_2376)">
<path d="M18.0004 18.9997C18.1982 18.9997 18.3915 18.941 18.5559 18.8311C18.7203 18.7212 18.8484 18.5651 18.9241 18.3824C18.9998 18.1997 19.0196 17.9986 18.981 17.8047C18.9424 17.6107 18.8472 17.4326 18.7074 17.2927L12.5354 11.1217C11.5978 10.1844 10.3262 9.65778 9.00041 9.65778C7.67459 9.65778 6.40305 10.1844 5.46541 11.1217L3.29341 13.2927C3.11125 13.4813 3.01045 13.7339 3.01273 13.9961C3.01501 14.2583 3.12018 14.5091 3.30559 14.6945C3.491 14.8799 3.74181 14.9851 4.00401 14.9874C4.2662 14.9897 4.5188 14.8889 4.70741 14.7067L6.87941 12.5357C7.45063 11.9898 8.21031 11.6852 9.00041 11.6852C9.79051 11.6852 10.5502 11.9898 11.1214 12.5357L17.2934 18.7067C17.4809 18.8943 17.7352 18.9997 18.0004 18.9997Z" fill="#667085"/>
<path d="M16 10.4996C16.6922 10.4996 17.3689 10.2944 17.9445 9.90978C18.5201 9.52519 18.9687 8.97857 19.2336 8.33903C19.4985 7.69949 19.5678 6.99575 19.4327 6.31682C19.2977 5.63789 18.9644 5.01425 18.4749 4.52476C17.9854 4.03528 17.3617 3.70194 16.6828 3.56689C16.0039 3.43184 15.3001 3.50115 14.6606 3.76606C14.0211 4.03096 13.4744 4.47957 13.0899 5.05514C12.7053 5.63071 12.5 6.3074 12.5 6.99964C12.5 7.92789 12.8687 8.81813 13.5251 9.47451C14.1815 10.1309 15.0717 10.4996 16 10.4996ZM16 5.49964C16.2967 5.49964 16.5867 5.58761 16.8334 5.75243C17.08 5.91725 17.2723 6.15152 17.3858 6.42561C17.4994 6.6997 17.5291 7.0013 17.4712 7.29227C17.4133 7.58324 17.2704 7.85052 17.0607 8.0603C16.8509 8.27007 16.5836 8.41294 16.2926 8.47081C16.0017 8.52869 15.7001 8.49899 15.426 8.38546C15.1519 8.27192 14.9176 8.07966 14.7528 7.83299C14.588 7.58632 14.5 7.29631 14.5 6.99964C14.5 6.60181 14.658 6.22028 14.9393 5.93898C15.2206 5.65767 15.6022 5.49964 16 5.49964Z" fill="#667085"/>
<path d="M23 16.0003C22.7348 16.0003 22.4804 16.1057 22.2929 16.2932C22.1053 16.4807 22 16.7351 22 17.0003V19.0003C22 19.7959 21.6839 20.559 21.1213 21.1216C20.5587 21.6842 19.7956 22.0003 19 22.0003H17C16.7348 22.0003 16.4804 22.1056 16.2929 22.2932C16.1054 22.4807 16 22.7351 16 23.0003C16 23.2655 16.1054 23.5199 16.2929 23.7074C16.4804 23.8949 16.7348 24.0003 17 24.0003H19C20.3256 23.9987 21.5964 23.4714 22.5338 22.5341C23.4711 21.5967 23.9984 20.3259 24 19.0003V17.0003C24 16.7351 23.8946 16.4807 23.7071 16.2932C23.5196 16.1057 23.2652 16.0003 23 16.0003Z" fill="#667085"/>
<path d="M1 8C1.26522 8 1.51957 7.89464 1.70711 7.70711C1.89464 7.51957 2 7.26522 2 7V5C2 4.20435 2.31607 3.44129 2.87868 2.87868C3.44129 2.31607 4.20435 2 5 2H7C7.26522 2 7.51957 1.89464 7.70711 1.70711C7.89464 1.51957 8 1.26522 8 1C8 0.734784 7.89464 0.48043 7.70711 0.292893C7.51957 0.105357 7.26522 0 7 0L5 0C3.67441 0.00158786 2.40356 0.528882 1.46622 1.46622C0.528882 2.40356 0.00158786 3.67441 0 5L0 7C0 7.26522 0.105357 7.51957 0.292893 7.70711C0.48043 7.89464 0.734784 8 1 8Z" fill="#667085"/>
<path d="M7 22.0003H5C4.20435 22.0003 3.44129 21.6842 2.87868 21.1216C2.31607 20.559 2 19.7959 2 19.0003V17.0003C2 16.7351 1.89464 16.4807 1.70711 16.2932C1.51957 16.1057 1.26522 16.0003 1 16.0003C0.734784 16.0003 0.48043 16.1057 0.292893 16.2932C0.105357 16.4807 0 16.7351 0 17.0003L0 19.0003C0.00158786 20.3259 0.528882 21.5967 1.46622 22.5341C2.40356 23.4714 3.67441 23.9987 5 24.0003H7C7.26522 24.0003 7.51957 23.8949 7.70711 23.7074C7.89464 23.5199 8 23.2655 8 23.0003C8 22.7351 7.89464 22.4807 7.70711 22.2932C7.51957 22.1056 7.26522 22.0003 7 22.0003Z" fill="#667085"/>
<path d="M19 0H17C16.7348 0 16.4804 0.105357 16.2929 0.292893C16.1054 0.48043 16 0.734784 16 1C16 1.26522 16.1054 1.51957 16.2929 1.70711C16.4804 1.89464 16.7348 2 17 2H19C19.7956 2 20.5587 2.31607 21.1213 2.87868C21.6839 3.44129 22 4.20435 22 5V7C22 7.26522 22.1053 7.51957 22.2929 7.70711C22.4804 7.89464 22.7348 8 23 8C23.2652 8 23.5196 7.89464 23.7071 7.70711C23.8946 7.51957 24 7.26522 24 7V5C23.9984 3.67441 23.4711 2.40356 22.5338 1.46622C21.5964 0.528882 20.3256 0.00158786 19 0V0Z" fill="#667085"/>
</g>
<defs>
<clipPath id="clip0_116_2376">
<rect width="24" height="24" fill="white"/>
</clipPath>
</defs>
</svg>
