<svg width="24" height="24" viewBox="0 0 24 24" fill="none" xmlns="http://www.w3.org/2000/svg">
<g clip-path="url(#clip0_568_1075)">
<path d="M17.9999 18.9996C18.1977 18.9996 18.391 18.9409 18.5554 18.831C18.7198 18.7212 18.8479 18.565 18.9236 18.3823C18.9993 18.1996 19.0191 17.9986 18.9805 17.8046C18.9419 17.6107 18.8467 17.4325 18.7069 17.2926L12.5349 11.1216C11.5973 10.1843 10.3257 9.65771 8.99992 9.65771C7.6741 9.65771 6.40256 10.1843 5.46492 11.1216L3.29292 13.2926C3.11076 13.4812 3.00997 13.7339 3.01224 13.996C3.01452 14.2582 3.11969 14.5091 3.3051 14.6945C3.49051 14.8799 3.74132 14.985 4.00352 14.9873C4.26571 14.9896 4.51832 14.8888 4.70692 14.7066L6.87892 12.5356C7.45014 11.9898 8.20982 11.6852 8.99992 11.6852C9.79002 11.6852 10.5497 11.9898 11.1209 12.5356L17.2929 18.7066C17.4804 18.8942 17.7347 18.9996 17.9999 18.9996Z" fill="url(#paint0_linear_568_1075)"/>
<path d="M16 10.4998C16.6922 10.4998 17.3689 10.2945 17.9445 9.9099C18.5201 9.52532 18.9687 8.97869 19.2336 8.33915C19.4985 7.69961 19.5678 6.99588 19.4327 6.31694C19.2977 5.63801 18.9644 5.01437 18.4749 4.52488C17.9854 4.0354 17.3617 3.70206 16.6828 3.56701C16.0039 3.43196 15.3001 3.50127 14.6606 3.76618C14.0211 4.03109 13.4744 4.47969 13.0899 5.05526C12.7053 5.63083 12.5 6.30752 12.5 6.99976C12.5 7.92802 12.8687 8.81825 13.5251 9.47463C14.1815 10.131 15.0717 10.4998 16 10.4998ZM16 5.49976C16.2967 5.49976 16.5867 5.58773 16.8334 5.75255C17.08 5.91738 17.2723 6.15164 17.3858 6.42573C17.4994 6.69982 17.5291 7.00142 17.4712 7.29239C17.4133 7.58336 17.2704 7.85064 17.0607 8.06042C16.8509 8.2702 16.5836 8.41306 16.2926 8.47094C16.0017 8.52881 15.7001 8.49911 15.426 8.38558C15.1519 8.27205 14.9176 8.07979 14.7528 7.83311C14.588 7.58644 14.5 7.29643 14.5 6.99976C14.5 6.60193 14.658 6.2204 14.9393 5.9391C15.2206 5.65779 15.6022 5.49976 16 5.49976Z" fill="url(#paint1_linear_568_1075)"/>
<path d="M23 16.0002C22.7348 16.0002 22.4804 16.1056 22.2929 16.2931C22.1053 16.4807 22 16.735 22 17.0002V19.0002C22 19.7959 21.6839 20.5589 21.1213 21.1216C20.5587 21.6842 19.7956 22.0002 19 22.0002H17C16.7348 22.0002 16.4804 22.1056 16.2929 22.2931C16.1054 22.4807 16 22.735 16 23.0002C16 23.2654 16.1054 23.5198 16.2929 23.7073C16.4804 23.8949 16.7348 24.0002 17 24.0002H19C20.3256 23.9986 21.5964 23.4713 22.5338 22.534C23.4711 21.5967 23.9984 20.3258 24 19.0002V17.0002C24 16.735 23.8946 16.4807 23.7071 16.2931C23.5196 16.1056 23.2652 16.0002 23 16.0002Z" fill="url(#paint2_linear_568_1075)"/>
<path d="M1 8C1.26522 8 1.51957 7.89464 1.70711 7.70711C1.89464 7.51957 2 7.26522 2 7V5C2 4.20435 2.31607 3.44129 2.87868 2.87868C3.44129 2.31607 4.20435 2 5 2H7C7.26522 2 7.51957 1.89464 7.70711 1.70711C7.89464 1.51957 8 1.26522 8 1C8 0.734784 7.89464 0.48043 7.70711 0.292893C7.51957 0.105357 7.26522 0 7 0L5 0C3.67441 0.00158786 2.40356 0.528882 1.46622 1.46622C0.528882 2.40356 0.00158786 3.67441 0 5L0 7C0 7.26522 0.105357 7.51957 0.292893 7.70711C0.48043 7.89464 0.734784 8 1 8Z" fill="url(#paint3_linear_568_1075)"/>
<path d="M7 22.0002H5C4.20435 22.0002 3.44129 21.6842 2.87868 21.1216C2.31607 20.5589 2 19.7959 2 19.0002V17.0002C2 16.735 1.89464 16.4807 1.70711 16.2931C1.51957 16.1056 1.26522 16.0002 1 16.0002C0.734784 16.0002 0.48043 16.1056 0.292893 16.2931C0.105357 16.4807 0 16.735 0 17.0002L0 19.0002C0.00158786 20.3258 0.528882 21.5967 1.46622 22.534C2.40356 23.4713 3.67441 23.9986 5 24.0002H7C7.26522 24.0002 7.51957 23.8949 7.70711 23.7073C7.89464 23.5198 8 23.2654 8 23.0002C8 22.735 7.89464 22.4807 7.70711 22.2931C7.51957 22.1056 7.26522 22.0002 7 22.0002Z" fill="url(#paint4_linear_568_1075)"/>
<path d="M19 0H17C16.7348 0 16.4804 0.105357 16.2929 0.292893C16.1054 0.48043 16 0.734784 16 1C16 1.26522 16.1054 1.51957 16.2929 1.70711C16.4804 1.89464 16.7348 2 17 2H19C19.7956 2 20.5587 2.31607 21.1213 2.87868C21.6839 3.44129 22 4.20435 22 5V7C22 7.26522 22.1053 7.51957 22.2929 7.70711C22.4804 7.89464 22.7348 8 23 8C23.2652 8 23.5196 7.89464 23.7071 7.70711C23.8946 7.51957 24 7.26522 24 7V5C23.9984 3.67441 23.4711 2.40356 22.5338 1.46622C21.5964 0.528882 20.3256 0.00158786 19 0V0Z" fill="url(#paint5_linear_568_1075)"/>
</g>
<defs>
<linearGradient id="paint0_linear_568_1075" x1="21.1292" y1="4.80808" x2="1.00326" y2="17.2468" gradientUnits="userSpaceOnUse">
<stop stop-color="#7017FF"/>
<stop offset="0.581895" stop-color="#F80261"/>
<stop offset="1" stop-color="#FFD000"/>
</linearGradient>
<linearGradient id="paint1_linear_568_1075" x1="20.4324" y1="-0.134125" x2="9.65943" y2="3.75642" gradientUnits="userSpaceOnUse">
<stop stop-color="#7017FF"/>
<stop offset="0.581895" stop-color="#F80261"/>
<stop offset="1" stop-color="#FFD000"/>
</linearGradient>
<linearGradient id="paint2_linear_568_1075" x1="25.0656" y1="11.8472" x2="12.7536" y2="16.2936" gradientUnits="userSpaceOnUse">
<stop stop-color="#7017FF"/>
<stop offset="0.581895" stop-color="#F80261"/>
<stop offset="1" stop-color="#FFD000"/>
</linearGradient>
<linearGradient id="paint3_linear_568_1075" x1="9.06557" y1="-4.15301" x2="-3.24636" y2="0.293335" gradientUnits="userSpaceOnUse">
<stop stop-color="#7017FF"/>
<stop offset="0.581895" stop-color="#F80261"/>
<stop offset="1" stop-color="#FFD000"/>
</linearGradient>
<linearGradient id="paint4_linear_568_1075" x1="9.06557" y1="11.8472" x2="-3.24636" y2="16.2936" gradientUnits="userSpaceOnUse">
<stop stop-color="#7017FF"/>
<stop offset="0.581895" stop-color="#F80261"/>
<stop offset="1" stop-color="#FFD000"/>
</linearGradient>
<linearGradient id="paint5_linear_568_1075" x1="25.0656" y1="-4.15301" x2="12.7536" y2="0.29332" gradientUnits="userSpaceOnUse">
<stop stop-color="#7017FF"/>
<stop offset="0.581895" stop-color="#F80261"/>
<stop offset="1" stop-color="#FFD000"/>
</linearGradient>
<clipPath id="clip0_568_1075">
<rect width="24" height="24" fill="white"/>
</clipPath>
</defs>
</svg>
