<svg width="24" height="24" viewBox="0 0 24 24" fill="none" xmlns="http://www.w3.org/2000/svg">
<path d="M20.9997 12.4237V10.9997C20.9997 8.61275 20.0515 6.32356 18.3637 4.63573C16.6758 2.94791 14.3867 1.99969 11.9997 1.99969C9.61276 1.99969 7.32357 2.94791 5.63575 4.63573C3.94792 6.32356 2.99971 8.61275 2.99971 10.9997V12.4237C1.95087 12.8855 1.09251 13.6936 0.568328 14.7128C0.0441491 15.7319 -0.114033 16.9001 0.120264 18.0219C0.354561 19.1438 0.967114 20.151 1.85538 20.8751C2.74364 21.5993 3.85369 21.9963 4.99971 21.9997C5.53014 21.9997 6.03885 21.789 6.41392 21.4139C6.78899 21.0388 6.99971 20.5301 6.99971 19.9997V13.9997C6.99971 13.4693 6.78899 12.9606 6.41392 12.5855C6.03885 12.2104 5.53014 11.9997 4.99971 11.9997V10.9997C4.99971 9.14318 5.7372 7.3627 7.04996 6.04995C8.36271 4.73719 10.1432 3.99969 11.9997 3.99969C13.8562 3.99969 15.6367 4.73719 16.9495 6.04995C18.2622 7.3627 18.9997 9.14318 18.9997 10.9997V11.9997C18.4693 11.9997 17.9606 12.2104 17.5855 12.5855C17.2104 12.9606 16.9997 13.4693 16.9997 13.9997V19.9997H13.9997C13.7345 19.9997 13.4801 20.1051 13.2926 20.2926C13.1051 20.4801 12.9997 20.7345 12.9997 20.9997C12.9997 21.2649 13.1051 21.5193 13.2926 21.7068C13.4801 21.8943 13.7345 21.9997 13.9997 21.9997H18.9997C20.1457 21.9963 21.2558 21.5993 22.144 20.8751C23.0323 20.151 23.6449 19.1438 23.8791 18.0219C24.1134 16.9001 23.9553 15.7319 23.4311 14.7128C22.9069 13.6936 22.0485 12.8855 20.9997 12.4237ZM4.99971 19.9997C4.20406 19.9997 3.441 19.6836 2.87839 19.121C2.31578 18.5584 1.99971 17.7953 1.99971 16.9997C1.99971 16.204 2.31578 15.441 2.87839 14.8784C3.441 14.3158 4.20406 13.9997 4.99971 13.9997V19.9997ZM18.9997 19.9997V13.9997C19.7954 13.9997 20.5584 14.3158 21.121 14.8784C21.6836 15.441 21.9997 16.204 21.9997 16.9997C21.9997 17.7953 21.6836 18.5584 21.121 19.121C20.5584 19.6836 19.7954 19.9997 18.9997 19.9997Z" fill="#667085"/>
</svg>
