<svg width="37" height="38" viewBox="0 0 37 38" fill="none" xmlns="http://www.w3.org/2000/svg">
<g clip-path="url(#clip0_599_1375)">
<path d="M20.5517 37.2553H17.0184C9.2917 37.2553 3.02832 29.0729 3.02832 18.9793C3.02832 8.88567 9.2917 0.703308 17.0184 0.703308H19.9401L20.5517 37.2553Z" fill="#E4AF18"/>
<path d="M18.2985 1.28448H13.5403C12.7325 1.55456 11.9515 1.91074 11.207 2.35546H15.9994C16.7345 1.91643 17.5017 1.55375 18.2985 1.28448Z" fill="#C49214"/>
<path d="M13.6528 4.13675H8.85999C8.46564 4.50755 8.0859 4.90312 7.72363 5.32428H12.516C12.8787 4.90312 13.2584 4.50755 13.6528 4.13675Z" fill="#C49214"/>
<path d="M10.8084 7.69894H6.0156C5.78451 8.08315 5.56357 8.47831 5.35645 8.88648H10.1488C10.3563 8.47831 10.5773 8.08315 10.8084 7.69894Z" fill="#C49214"/>
<path d="M9.12953 11.2611H4.33716C4.19827 11.6498 4.07033 12.0458 3.95215 12.4487H8.74452C8.8627 12.0458 8.99104 11.6498 9.12953 11.2611Z" fill="#C49214"/>
<path d="M8.18835 14.8233H3.39598C3.32612 15.2148 3.2648 15.61 3.21484 16.0109H8.00721C8.05717 15.61 8.1189 15.2148 8.18835 14.8233Z" fill="#C49214"/>
<path d="M7.82109 18.9793C7.82109 18.7803 7.82759 18.5833 7.83247 18.3855H3.0401C3.03522 18.5833 3.02832 18.7803 3.02832 18.9793C3.02832 19.1783 3.03482 19.3753 3.03969 19.5731H7.83206C7.82759 19.3753 7.82109 19.1783 7.82109 18.9793Z" fill="#C49214"/>
<path d="M8.00721 21.9477H3.21484C3.2648 22.3481 3.32612 22.7437 3.39598 23.1352H8.18835C8.1189 22.7437 8.05717 22.3485 8.00721 21.9477Z" fill="#C49214"/>
<path d="M8.74452 25.5099H3.95215C4.07033 25.9128 4.19827 26.3087 4.33716 26.6974H9.12994C8.99104 26.3087 8.8627 25.9128 8.74452 25.5099Z" fill="#C49214"/>
<path d="M10.1488 29.0721H5.35645C5.56398 29.4802 5.78492 29.8754 6.0156 30.2596H10.8084C10.5773 29.8754 10.3563 29.4802 10.1488 29.0721Z" fill="#C49214"/>
<path d="M12.516 32.6343H7.72363C8.0859 33.0554 8.46523 33.451 8.85999 33.8218H13.6528C13.258 33.451 12.8783 33.0554 12.516 32.6343Z" fill="#C49214"/>
<path d="M15.7407 35.4496L11.207 35.6031C11.9608 36.0535 12.752 36.4129 13.5703 36.6842H18.3282C17.4278 36.3825 16.5619 35.967 15.7407 35.4496Z" fill="#C49214"/>
<path d="M19.9403 37.2553C27.6667 37.2553 33.9303 29.0728 33.9303 18.9793C33.9303 8.88574 27.6667 0.703308 19.9403 0.703308C12.2138 0.703308 5.9502 8.88574 5.9502 18.9793C5.9502 29.0728 12.2138 37.2553 19.9403 37.2553Z" fill="#FFD949"/>
<path d="M19.9378 33.1939C25.9472 33.1939 30.8189 26.8298 30.8189 18.9793C30.8189 11.1288 25.9472 4.76465 19.9378 4.76465C13.9283 4.76465 9.05664 11.1288 9.05664 18.9793C9.05664 26.8298 13.9283 33.1939 19.9378 33.1939Z" fill="#E4AF18"/>
<g clip-path="url(#clip1_599_1375)">
<path d="M20.2047 29C20.2047 29 20.4187 27.2921 21.5415 26.1341C21.5415 26.1341 19.2091 27.4473 17.8697 27.7406C17.8697 27.7406 15.2213 28.2797 14.7341 25.8884C14.7341 25.8884 14.1715 22.915 18.0384 22.0948C18.0384 22.0948 14.816 19.2704 14.1639 15.5767C14.1639 15.5767 13.5534 12.4159 14.6888 11.1657C14.6888 11.1657 16.5379 9.06314 19.5867 12.3714C19.5867 12.3714 21.1324 14.0132 22.1004 18.3443C22.1004 18.3443 22.3597 19.7527 22.8393 23.7443C22.8393 23.7443 23.4524 23.6706 24.4808 21.6018C24.4808 21.6018 24.3977 24.007 22.3182 24.8363C22.3182 24.8363 22.0476 18.9371 20.8064 16.1419C20.8064 16.1419 18.7458 10.6067 15.7726 11.4944C15.7726 11.4944 14.038 12.0381 15.1306 16.1926C15.1306 16.1926 15.9086 19.4747 19.1449 22.3728C19.1449 22.3728 15.2666 23.024 15.3295 25.3063C15.3295 25.3063 15.0589 27.8696 18.5356 26.9896C18.5356 26.9896 21.4572 26.0404 22.9287 24.8348C22.9287 24.8348 24.1057 23.5523 25.1353 24.3479C26.165 25.1435 23.6424 25.4245 23.013 25.681C23.013 25.681 21.1564 26.4843 20.2047 28.9985V29Z" fill="#FFD949"/>
<path d="M23.1917 22.2041C24.4354 19.5809 26.1309 16.1375 26.1838 13.0904C26.1977 11.3272 25.353 10.2137 23.9344 10.8496C22.697 11.6129 22.3068 13.3423 22.0362 14.8996C22.0336 13.6295 22.1923 12.2395 22.8569 11.1874C23.0923 10.8281 23.3793 10.504 23.7103 10.2813C24.4291 9.86353 25.3291 9.8835 25.9698 10.5163C26.5929 11.1475 26.788 12.152 26.8069 13.0781C26.8132 16.2665 24.959 20.1753 23.1905 22.2041H23.1917Z" fill="#FFD949"/>
</g>
</g>
<defs>
<clipPath id="clip0_599_1375">
<rect width="37" height="37" fill="white" transform="translate(0 0.5)"/>
</clipPath>
<clipPath id="clip1_599_1375">
<rect width="12.8067" height="19" fill="white" transform="translate(14 10)"/>
</clipPath>
</defs>
</svg>
