<svg width="20" height="20" viewBox="0 0 20 20" fill="none" xmlns="http://www.w3.org/2000/svg">
<g clip-path="url(#clip0_93_952)">
<path d="M19.9998 9.58335C19.9994 9.00866 19.8292 8.44691 19.5106 7.96863C19.192 7.49035 18.7391 7.11684 18.209 6.89501C17.8707 4.96365 16.8621 3.21344 15.3608 1.95224C13.8594 0.69104 11.9614 -0.000366211 10.0007 -0.000366211C8.03989 -0.000366211 6.1419 0.69104 4.64056 1.95224C3.13922 3.21344 2.13068 4.96365 1.79233 6.89501C1.18734 7.14954 0.685877 7.60069 0.36904 8.17552C0.0522035 8.75034 -0.0614857 9.41523 0.0463565 10.0627C0.154199 10.7101 0.477267 11.3022 0.963322 11.7433C1.44938 12.1844 2.07 12.4487 2.72483 12.4933C3.15524 13.4067 3.73897 14.2396 4.45067 14.9558C3.40782 16.0945 2.74599 17.53 2.55733 19.0625C2.54368 19.1711 2.55156 19.2814 2.58052 19.387C2.60949 19.4925 2.65897 19.5914 2.72614 19.6778C2.79332 19.7642 2.87686 19.8366 2.97201 19.8907C3.06716 19.9449 3.17204 19.9798 3.28067 19.9933C3.31496 19.9975 3.34946 19.9998 3.384 20C3.58681 19.9998 3.78257 19.9256 3.9346 19.7914C4.08662 19.6571 4.18448 19.4721 4.20983 19.2708C4.36092 18.0626 4.89034 16.9332 5.72233 16.0442C6.96328 16.9602 8.45775 17.4688 9.99983 17.5C11.5374 17.4685 13.0275 16.962 14.2657 16.05C15.094 16.9375 15.6213 18.0637 15.7723 19.2683C15.7975 19.4697 15.8953 19.655 16.0473 19.7894C16.1994 19.9238 16.3952 19.9981 16.5982 19.9983C16.633 19.9982 16.6678 19.9959 16.7023 19.9917C16.9216 19.9642 17.1209 19.8508 17.2565 19.6764C17.3922 19.502 17.453 19.2809 17.4257 19.0617C17.2383 17.5331 16.5798 16.1007 15.5415 14.9633C16.2571 14.2449 16.844 13.4089 17.2765 12.4917C18.0146 12.4426 18.7065 12.115 19.2122 11.575C19.7178 11.035 19.9993 10.3231 19.9998 9.58335ZM16.8732 10.8108C16.6788 10.7752 16.4781 10.8104 16.3074 10.9099C16.1366 11.0094 16.0072 11.1667 15.9423 11.3533C15.179 13.5183 12.6082 15.8333 9.99983 15.8333C7.3915 15.8333 4.82067 13.5167 4.05733 11.3517C3.99237 11.1651 3.86285 11.0079 3.69217 10.9084C3.52148 10.8089 3.32086 10.7737 3.1265 10.8092C3.05725 10.8228 2.98703 10.8308 2.9165 10.8333C2.60716 10.8297 2.31017 10.7114 2.08299 10.5014C1.8558 10.2914 1.71456 10.0046 1.68657 9.69653C1.65858 9.38843 1.74583 9.0809 1.93146 8.83341C2.11708 8.58593 2.38789 8.41606 2.6915 8.35668C2.86868 8.32456 3.03069 8.23592 3.15327 8.10402C3.27586 7.97212 3.35242 7.80407 3.3715 7.62501C3.4828 6.55944 3.85051 5.53667 4.44319 4.64417C5.03587 3.75166 5.83589 3.01597 6.77483 2.50001C6.63839 3.0301 6.6321 3.58531 6.7565 4.11835C6.92593 4.82326 7.32055 5.45372 7.88055 5.91415C8.44056 6.37459 9.13541 6.63989 9.85978 6.66986C10.5841 6.69982 11.2985 6.4928 11.8946 6.08019C12.4908 5.66757 12.9361 5.07186 13.1632 4.38335C13.2002 4.26104 13.2079 4.13173 13.1857 4.00589C13.1635 3.88005 13.1119 3.7612 13.0353 3.65897C12.9586 3.55674 12.8589 3.47399 12.7443 3.41742C12.6297 3.36086 12.5035 3.33205 12.3757 3.33335H12.2498C12.0966 3.33837 11.9489 3.39203 11.8281 3.48656C11.7074 3.58109 11.6198 3.7116 11.5782 3.85918C11.4813 4.15052 11.3058 4.40945 11.0711 4.60739C10.8364 4.80533 10.5516 4.9346 10.2481 4.98093C9.94462 5.02726 9.63421 4.98885 9.35115 4.86994C9.06808 4.75104 8.82337 4.55625 8.64399 4.30708C8.46462 4.0579 8.35755 3.76402 8.33462 3.45786C8.31168 3.15169 8.37376 2.84514 8.51401 2.57202C8.65425 2.2989 8.86722 2.06983 9.1294 1.91007C9.39159 1.75032 9.69281 1.66609 9.99983 1.66668C11.6464 1.66274 13.2358 2.26993 14.4603 3.37067C15.6848 4.47141 16.4573 5.98738 16.6282 7.62501C16.6472 7.80407 16.7238 7.97212 16.8464 8.10402C16.969 8.23592 17.131 8.32456 17.3082 8.35668C17.6118 8.41606 17.8826 8.58593 18.0682 8.83341C18.2538 9.0809 18.3411 9.38843 18.3131 9.69653C18.2851 10.0046 18.1439 10.2914 17.9167 10.5014C17.6895 10.7114 17.3925 10.8297 17.0832 10.8333C17.0127 10.8314 16.9425 10.8239 16.8732 10.8108Z" fill="#667085"/>
<path d="M7.91675 10.8334C8.6071 10.8334 9.16675 10.2737 9.16675 9.58339C9.16675 8.89303 8.6071 8.33339 7.91675 8.33339C7.22639 8.33339 6.66675 8.89303 6.66675 9.58339C6.66675 10.2737 7.22639 10.8334 7.91675 10.8334Z" fill="#667085"/>
<path d="M12.0833 10.8334C12.7736 10.8334 13.3333 10.2737 13.3333 9.58339C13.3333 8.89303 12.7736 8.33339 12.0833 8.33339C11.3929 8.33339 10.8333 8.89303 10.8333 9.58339C10.8333 10.2737 11.3929 10.8334 12.0833 10.8334Z" fill="#667085"/>
</g>
<defs>
<clipPath id="clip0_93_952">
<rect width="20" height="20" fill="white"/>
</clipPath>
</defs>
</svg>
