<svg width="20" height="20" viewBox="0 0 20 20" fill="none" xmlns="http://www.w3.org/2000/svg">
<g clip-path="url(#clip0_93_772)">
<path d="M10 0C8.02219 0 6.08879 0.58649 4.4443 1.6853C2.79981 2.78412 1.51809 4.3459 0.761209 6.17317C0.00433286 8.00043 -0.193701 10.0111 0.192152 11.9509C0.578004 13.8907 1.53041 15.6725 2.92894 17.0711C4.32746 18.4696 6.10929 19.422 8.0491 19.8079C9.98891 20.1937 11.9996 19.9957 13.8268 19.2388C15.6541 18.4819 17.2159 17.2002 18.3147 15.5557C19.4135 13.9112 20 11.9778 20 10C19.9971 7.34872 18.9426 4.80684 17.0679 2.9321C15.1932 1.05736 12.6513 0.00286757 10 0V0ZM10 18.3333C8.35183 18.3333 6.74066 17.8446 5.37025 16.9289C3.99984 16.0132 2.93174 14.7117 2.30101 13.189C1.67028 11.6663 1.50525 9.99076 1.82679 8.37425C2.14834 6.75774 2.94201 5.27288 4.10745 4.10744C5.27289 2.94201 6.75774 2.14833 8.37425 1.82679C9.99076 1.50525 11.6663 1.67027 13.189 2.301C14.7118 2.93173 16.0132 3.99984 16.9289 5.37025C17.8446 6.74066 18.3333 8.35182 18.3333 10C18.3309 12.2094 17.4522 14.3276 15.8899 15.8899C14.3276 17.4522 12.2094 18.3309 10 18.3333ZM10 5.83333C9.41098 5.83222 8.84057 6.0396 8.3898 6.41875C7.93903 6.7979 7.63699 7.32435 7.53718 7.90485C7.43737 8.48536 7.54623 9.08245 7.84447 9.59039C8.14272 10.0983 8.6111 10.4843 9.16667 10.68V13.3333C9.16667 13.5543 9.25447 13.7663 9.41075 13.9226C9.56703 14.0789 9.77899 14.1667 10 14.1667C10.221 14.1667 10.433 14.0789 10.5893 13.9226C10.7455 13.7663 10.8333 13.5543 10.8333 13.3333V10.68C11.3889 10.4843 11.8573 10.0983 12.1555 9.59039C12.4538 9.08245 12.5626 8.48536 12.4628 7.90485C12.363 7.32435 12.061 6.7979 11.6102 6.41875C11.1594 6.0396 10.589 5.83222 10 5.83333ZM10 9.16667C9.83519 9.16667 9.67407 9.11779 9.53703 9.02623C9.39999 8.93466 9.29318 8.80451 9.2301 8.65224C9.16703 8.49996 9.15053 8.33241 9.18268 8.17076C9.21484 8.00911 9.29421 7.86062 9.41075 7.74408C9.52729 7.62753 9.67578 7.54817 9.83743 7.51601C9.99908 7.48386 10.1666 7.50036 10.3189 7.56343C10.4712 7.62651 10.6013 7.73332 10.6929 7.87036C10.7845 8.0074 10.8333 8.16852 10.8333 8.33333C10.8333 8.55435 10.7455 8.76631 10.5893 8.92259C10.433 9.07887 10.221 9.16667 10 9.16667Z" fill="#383E49"/>
</g>
<defs>
<clipPath id="clip0_93_772">
<rect width="20" height="20" fill="white"/>
</clipPath>
</defs>
</svg>
