<svg width="24" height="24" viewBox="0 0 24 24" fill="none" xmlns="http://www.w3.org/2000/svg">
<path d="M23.6988 1.71823L5.18896 20.2231C5.58913 20.4181 6.02804 20.5206 6.47318 20.5229H9.64325C9.90845 20.5222 10.1629 20.6277 10.3498 20.8158L12.0678 22.5328C12.9995 23.4708 14.2666 23.9988 15.5887 23.9999C16.1345 23.9994 16.6766 23.9099 17.1937 23.735C18.9762 23.1506 20.2728 21.6054 20.5387 19.7484L23.9157 3.70805C24.0769 3.03968 24.0002 2.33609 23.6988 1.71823Z" fill="url(#paint0_linear_186_730)"/>
<path d="M20.3208 0.0771582L4.31942 3.44816C1.58535 3.82378 -0.326562 6.3447 0.0490558 9.07877C0.19742 10.1585 0.694699 11.1602 1.46514 11.931L3.18212 13.648C3.36979 13.8356 3.47515 14.0902 3.47496 14.3556V17.5257C3.47726 17.9708 3.57976 18.4098 3.77478 18.8099L22.2816 0.300055C21.6735 0.00117271 20.9805 -0.0775768 20.3208 0.0771582Z" fill="url(#paint1_linear_186_730)"/>
<defs>
<linearGradient id="paint0_linear_186_730" x1="26.5035" y1="-9.84874" x2="-3.43648" y2="-0.72129" gradientUnits="userSpaceOnUse">
<stop stop-color="#7017FF"/>
<stop offset="0.581895" stop-color="#F80261"/>
<stop offset="1" stop-color="#FFD000"/>
</linearGradient>
<linearGradient id="paint1_linear_186_730" x1="25.2492" y1="-9.76507" x2="-7.51587" y2="4.2503" gradientUnits="userSpaceOnUse">
<stop stop-color="#7017FF"/>
<stop offset="0.581895" stop-color="#F80261"/>
<stop offset="1" stop-color="#FFD000"/>
</linearGradient>
</defs>
</svg>
