<svg width="24" height="24" viewBox="0 0 24 24" fill="none" xmlns="http://www.w3.org/2000/svg">
<path d="M23.1189 0.882014C22.7604 0.519141 22.3143 0.254869 21.8238 0.11473C21.3333 -0.0254085 20.815 -0.0366769 20.3189 0.0820139L4.31889 3.45201C3.39746 3.57838 2.52962 3.95949 1.81309 4.55243C1.09656 5.14536 0.559801 5.92657 0.263263 6.80808C-0.033275 7.68959 -0.0778146 8.63638 0.13466 9.54183C0.347135 10.4473 0.808185 11.2754 1.46589 11.933L3.18389 13.65C3.27687 13.743 3.35061 13.8534 3.40089 13.9748C3.45117 14.0963 3.47699 14.2265 3.47689 14.358V17.526C3.47909 17.9714 3.58163 18.4107 3.77689 18.811L3.76889 18.818L3.79489 18.844C4.0879 19.4331 4.56647 19.9096 5.15689 20.2L5.18289 20.226L5.18989 20.218C5.59025 20.4133 6.02946 20.5158 6.47489 20.518H9.64289C9.90794 20.5178 10.1622 20.6228 10.3499 20.81L12.0669 22.527C12.5274 22.9926 13.0755 23.3625 13.6797 23.6153C14.2838 23.8681 14.932 23.9989 15.5869 24C16.1326 23.9993 16.6747 23.9102 17.1919 23.736C18.0653 23.4492 18.8413 22.924 19.4321 22.2197C20.023 21.5154 20.4053 20.66 20.5359 19.75L23.9109 3.71501C24.0357 3.21465 24.0284 2.69043 23.8895 2.19378C23.7507 1.69712 23.4851 1.24508 23.1189 0.882014ZM4.59989 12.238L2.88089 10.521C2.48061 10.1304 2.20006 9.63366 2.07217 9.08917C1.94429 8.54468 1.97437 7.97501 2.15889 7.44701C2.33778 6.90534 2.66849 6.42644 3.11168 6.06728C3.55488 5.70811 4.0919 5.4838 4.65889 5.42101L20.4999 2.08601L5.47489 17.113V14.358C5.4764 13.9644 5.39985 13.5743 5.24966 13.2104C5.09947 12.8465 4.87862 12.516 4.59989 12.238ZM18.5709 19.408C18.4941 19.9604 18.2649 20.4804 17.909 20.9097C17.5531 21.339 17.0846 21.6606 16.556 21.8384C16.0275 22.0162 15.4598 22.0431 14.9168 21.9163C14.3738 21.7894 13.8769 21.5136 13.4819 21.12L11.7619 19.4C11.4843 19.1209 11.154 18.8995 10.7903 18.7488C10.4266 18.5981 10.0366 18.521 9.64289 18.522H6.88789L21.9149 3.50001L18.5709 19.408Z" fill="#667085"/>
</svg>
