<svg width="24" height="24" viewBox="0 0 24 24" fill="none" xmlns="http://www.w3.org/2000/svg">
<g clip-path="url(#clip0_581_2221)">
<path d="M12 0C9.62663 0 7.30655 0.703788 5.33316 2.02236C3.35977 3.34094 1.8217 5.21509 0.913451 7.4078C0.00519943 9.60051 -0.232441 12.0133 0.230582 14.3411C0.693605 16.6689 1.83649 18.8071 3.51472 20.4853C5.19295 22.1635 7.33115 23.3064 9.65892 23.7694C11.9867 24.2324 14.3995 23.9948 16.5922 23.0866C18.7849 22.1783 20.6591 20.6402 21.9776 18.6668C23.2962 16.6935 24 14.3734 24 12C23.9966 8.81846 22.7312 5.76821 20.4815 3.51852C18.2318 1.26883 15.1815 0.00344108 12 0ZM12 22C10.0222 22 8.08879 21.4135 6.4443 20.3147C4.79981 19.2159 3.51809 17.6541 2.76121 15.8268C2.00433 13.9996 1.8063 11.9889 2.19215 10.0491C2.578 8.10929 3.53041 6.32746 4.92894 4.92893C6.32746 3.53041 8.10929 2.578 10.0491 2.19215C11.9889 1.8063 13.9996 2.00433 15.8268 2.7612C17.6541 3.51808 19.2159 4.79981 20.3147 6.4443C21.4135 8.08879 22 10.0222 22 12C21.9971 14.6513 20.9426 17.1931 19.0679 19.0679C17.1931 20.9426 14.6513 21.9971 12 22Z" fill="#667085"/>
<g clip-path="url(#clip1_581_2221)">
<path d="M11.8985 20.0001C11.8985 20.0001 12.0674 18.6518 12.9539 17.7375C12.9539 17.7375 11.1124 18.7742 10.055 19.0058C10.055 19.0058 7.96417 19.4314 7.57958 17.5435C7.57958 17.5435 7.13537 15.1961 10.1882 14.5486C10.1882 14.5486 7.64418 12.3188 7.12941 9.4027C7.12941 9.4027 6.64743 6.90735 7.54381 5.92037C7.54381 5.92037 9.00364 4.26044 11.4105 6.87219C11.4105 6.87219 12.6309 8.16837 13.3951 11.5877C13.3951 11.5877 13.5998 12.6995 13.9784 15.8508C13.9784 15.8508 14.4624 15.7926 15.2743 14.1594C15.2743 14.1594 15.2087 16.0582 13.567 16.7129C13.567 16.7129 13.3533 12.0557 12.3735 9.84891C12.3735 9.84891 10.7467 5.47901 8.39944 6.17985C8.39944 6.17985 7.03003 6.60907 7.89262 9.88892C7.89262 9.88892 8.50676 12.4801 11.0617 14.7681C11.0617 14.7681 7.99994 15.2822 8.04963 17.084C8.04963 17.084 7.83597 19.1077 10.5807 18.4129C10.5807 18.4129 12.8873 17.6636 14.049 16.7117C14.049 16.7117 14.9781 15.6993 15.791 16.3274C16.6039 16.9554 14.6124 17.1773 14.1156 17.3798C14.1156 17.3798 12.6498 18.014 11.8985 19.9989V20.0001Z" fill="#667085"/>
<path d="M14.2561 14.6349C15.2379 12.5639 16.5765 9.84547 16.6182 7.43983C16.6292 6.04786 15.9624 5.16878 14.8424 5.67076C13.8655 6.27339 13.5574 7.63868 13.3438 8.86818C13.3418 7.86542 13.467 6.76809 13.9917 5.93752C14.1775 5.65379 14.4041 5.39795 14.6655 5.22213C15.2329 4.89233 15.9435 4.90809 16.4493 5.40765C16.9412 5.90599 17.0952 6.69898 17.1102 7.43013C17.1151 9.94732 15.6513 13.0332 14.2551 14.6349H14.2561Z" fill="#667085"/>
</g>
</g>
<defs>
<clipPath id="clip0_581_2221">
<rect width="24" height="24" fill="white"/>
</clipPath>
<clipPath id="clip1_581_2221">
<rect width="10.1105" height="15" fill="white" transform="translate(7 5)"/>
</clipPath>
</defs>
</svg>
