<svg width="20" height="20" viewBox="0 0 20 20" fill="none" xmlns="http://www.w3.org/2000/svg">
<g clip-path="url(#clip0_105_418)">
<path d="M15.8333 0.833199H4.16667C3.062 0.834522 2.00296 1.27393 1.22185 2.05505C0.440735 2.83616 0.00132321 3.8952 0 4.99986L0 14.9999C0.00132321 16.1045 0.440735 17.1636 1.22185 17.9447C2.00296 18.7258 3.062 19.1652 4.16667 19.1665H15.8333C16.938 19.1652 17.997 18.7258 18.7782 17.9447C19.5593 17.1636 19.9987 16.1045 20 14.9999V4.99986C19.9987 3.8952 19.5593 2.83616 18.7782 2.05505C17.997 1.27393 16.938 0.834522 15.8333 0.833199ZM4.16667 2.49987H15.8333C16.3323 2.50085 16.8196 2.65113 17.2325 2.93137C17.6453 3.21161 17.9649 3.60899 18.15 4.07237L11.7683 10.4549C11.2987 10.9226 10.6628 11.1853 10 11.1853C9.33715 11.1853 8.70131 10.9226 8.23167 10.4549L1.85 4.07237C2.03512 3.60899 2.35468 3.21161 2.76754 2.93137C3.1804 2.65113 3.66768 2.50085 4.16667 2.49987ZM15.8333 17.4999H4.16667C3.50363 17.4999 2.86774 17.2365 2.3989 16.7676C1.93006 16.2988 1.66667 15.6629 1.66667 14.9999V6.24986L7.05333 11.6332C7.83552 12.4134 8.89521 12.8516 10 12.8516C11.1048 12.8516 12.1645 12.4134 12.9467 11.6332L18.3333 6.24986V14.9999C18.3333 15.6629 18.0699 16.2988 17.6011 16.7676C17.1323 17.2365 16.4964 17.4999 15.8333 17.4999Z" fill="#667085"/>
</g>
<defs>
<clipPath id="clip0_105_418">
<rect width="20" height="20" fill="white"/>
</clipPath>
</defs>
</svg>
