<svg width="20" height="20" viewBox="0 0 20 20" fill="none" xmlns="http://www.w3.org/2000/svg">
<g clip-path="url(#clip0_210_389)">
<path d="M10.8332 0.833417C10.8332 0.612403 10.921 0.400441 11.0773 0.244161C11.2336 0.0878808 11.4455 8.34005e-05 11.6666 8.34005e-05C13.8759 0.00250973 15.9942 0.881263 17.5564 2.44354C19.1187 4.00582 19.9975 6.12402 19.9999 8.33342C19.9999 8.55443 19.9121 8.76639 19.7558 8.92267C19.5995 9.07895 19.3876 9.16675 19.1665 9.16675C18.9455 9.16675 18.7336 9.07895 18.5773 8.92267C18.421 8.76639 18.3332 8.55443 18.3332 8.33342C18.3312 6.56592 17.6282 4.87138 16.3784 3.62156C15.1286 2.37175 13.4341 1.66874 11.6666 1.66675C11.4455 1.66675 11.2336 1.57895 11.0773 1.42267C10.921 1.26639 10.8332 1.05443 10.8332 0.833417ZM11.6666 5.00008C12.5506 5.00008 13.3985 5.35127 14.0236 5.97639C14.6487 6.60152 14.9999 7.44936 14.9999 8.33342C14.9999 8.55443 15.0877 8.76639 15.244 8.92267C15.4002 9.07895 15.6122 9.16675 15.8332 9.16675C16.0542 9.16675 16.2662 9.07895 16.4225 8.92267C16.5788 8.76639 16.6666 8.55443 16.6666 8.33342C16.6652 7.00774 16.138 5.73674 15.2006 4.79935C14.2632 3.86195 12.9922 3.33474 11.6666 3.33342C11.4455 3.33342 11.2336 3.42121 11.0773 3.57749C10.921 3.73378 10.8332 3.94574 10.8332 4.16675C10.8332 4.38776 10.921 4.59973 11.0773 4.75601C11.2336 4.91229 11.4455 5.00008 11.6666 5.00008ZM19.244 13.9493C19.727 14.4335 19.9982 15.0895 19.9982 15.7734C19.9982 16.4573 19.727 17.1133 19.244 17.5976L18.4857 18.4718C11.6607 25.0059 -4.94759 8.40175 1.48574 1.55508L2.44407 0.72175C2.92888 0.252314 3.57901 -0.0073757 4.25382 -0.00113756C4.92863 0.00510057 5.57385 0.276765 6.0499 0.755084C6.07573 0.780917 7.6199 2.78675 7.6199 2.78675C8.07809 3.26811 8.33315 3.90752 8.33206 4.57209C8.33098 5.23665 8.07383 5.87523 7.61406 6.35508L6.64907 7.56842C7.1831 8.86601 7.96828 10.0453 8.95949 11.0385C9.95069 12.0317 11.1284 12.8193 12.4249 13.3559L13.6457 12.3851C14.1256 11.9257 14.7641 11.6688 15.4285 11.6679C16.0928 11.667 16.732 11.922 17.2132 12.3801C17.2132 12.3801 19.2182 13.9234 19.244 13.9493ZM18.0974 15.1609C18.0974 15.1609 16.1032 13.6268 16.0774 13.6009C15.9057 13.4307 15.6737 13.3352 15.432 13.3352C15.1902 13.3352 14.9582 13.4307 14.7866 13.6009C14.7641 13.6243 13.0832 14.9634 13.0832 14.9634C12.97 15.0536 12.8352 15.1127 12.6921 15.1349C12.549 15.1571 12.4027 15.1417 12.2674 15.0901C10.5878 14.4647 9.06218 13.4857 7.79393 12.2193C6.52568 10.9529 5.5444 9.42878 4.91657 7.75008C4.8609 7.61296 4.84275 7.46349 4.86399 7.31703C4.88522 7.17057 4.94508 7.03241 5.0374 6.91675C5.0374 6.91675 6.37657 5.23508 6.39907 5.21342C6.56929 5.04174 6.6648 4.80976 6.6648 4.568C6.6648 4.32624 6.56929 4.09426 6.39907 3.92258C6.37323 3.89758 4.83907 1.90175 4.83907 1.90175C4.66482 1.74551 4.4374 1.66183 4.20344 1.66787C3.96948 1.67392 3.74669 1.76922 3.58074 1.93425L2.6224 2.76758C-2.07926 8.42092 12.3132 22.0151 17.2674 17.3334L18.0266 16.4584C18.2045 16.2936 18.3113 16.0661 18.3245 15.824C18.3377 15.5819 18.2563 15.3441 18.0974 15.1609Z" fill="#667085"/>
</g>
<defs>
<clipPath id="clip0_210_389">
<rect width="20" height="20" fill="white"/>
</clipPath>
</defs>
</svg>
